<?xml version="1.0" encoding="UTF-8" standalone="no"?>
<svg
   xmlns:dc="http://purl.org/dc/elements/1.1/"
   xmlns:cc="http://creativecommons.org/ns#"
   xmlns:rdf="http://www.w3.org/1999/02/22-rdf-syntax-ns#"
   xmlns:svg="http://www.w3.org/2000/svg"
   xmlns="http://www.w3.org/2000/svg"
   viewBox="0 0 451.82666 64.26667"
   height="64.26667"
   width="451.82666"
   xml:space="preserve"
   id="svg2"
   version="1.1"><metadata
     id="metadata8"><rdf:RDF><cc:Work
         rdf:about=""><dc:format>image/svg+xml</dc:format><dc:type
           rdf:resource="http://purl.org/dc/dcmitype/StillImage" /></cc:Work></rdf:RDF></metadata><defs
     id="defs6" /><g
     transform="matrix(1.3333333,0,0,-1.3333333,0,64.266667)"
     id="g10"><g
       transform="scale(0.1)"
       id="g12"><path
         id="path14"
         style="fill:#0d3258;fill-opacity:1;fill-rule:nonzero;stroke:none"
         d="m 608.594,477.559 v -5.606 c -19.926,-0.332 -27.051,-8.351 -27.051,-27.348 v -80.23 c 0,-36.848 -23.457,-76.383 -87.957,-76.383 -56.75,0 -85.856,32.379 -85.856,74.879 v 86.774 c 0,19.027 -5.347,21.976 -25.562,22.308 v 5.606 h 76.379 v -5.606 h -2.688 c -16.324,0 -23.464,-4.496 -23.464,-21.719 v -82.605 c 0,-40.102 23.464,-64.172 67.742,-64.172 33.578,0 67.754,13.965 67.754,64.438 v 69.261 c 0,28.528 -4.473,33.567 -29.125,34.797 v 5.606 h 69.828" /><path
         id="path16"
         style="fill:#0d3258;fill-opacity:1;fill-rule:nonzero;stroke:none"
         d="m 642.156,318.598 c 0,-16.332 3.864,-20.231 19.91,-20.231 v -5.629 h -59.718 v 5.629 c 13.062,0 19.898,7.156 19.898,18.742 v 62.387 c 0,11 -1.199,13.082 -8.91,14.563 l -10.117,2.082 v 4.754 l 34.183,12.488 h 4.754 v -23.16 c 19.91,12.468 36.543,23.453 51.11,23.453 20.211,0 31.789,-14.844 31.789,-44.543 0,-39.52 -2.075,-47.238 -2.364,-58.856 -0.32,-8.011 4.442,-11.91 16.629,-11.91 h 6.547 v -5.629 h -63.871 v 5.629 c 8.59,0.328 13.641,2.395 16.906,5.664 5.645,5.66 6.243,27.36 6.243,66.852 0,23.781 -11.575,31.226 -23.489,31.226 -9.5,0 -24.043,-8.332 -39.5,-19.023 v -64.488" /><path
         id="path18"
         style="fill:#0d3258;fill-opacity:1;fill-rule:nonzero;stroke:none"
         d="m 786.773,482.031 c 7.133,0 13.051,-5.039 13.051,-11.308 0,-6.223 -5.918,-11.285 -13.051,-11.285 -7.156,0 -12.785,5.062 -12.785,11.285 0,6.269 5.629,11.308 12.785,11.308 z m 12.176,-166.695 c 0,-10.418 5.653,-16.969 21.395,-16.969 v -5.629 h -65.965 v 5.629 c 18.117,0 24.66,5.953 24.66,21.727 v 59.707 c 0,11.605 -1.48,13.07 -9.199,14.574 l -13.973,2.68 v 4.742 l 38.613,13.383 h 4.469 v -99.844" /><path
         id="path20"
         style="fill:#0d3258;fill-opacity:1;fill-rule:nonzero;stroke:none"
         d="m 880.863,290.078 -43.082,98.629 c -4.461,10.402 -8.328,13.984 -13.086,14.883 l -9.203,1.469 v 5.355 h 60.621 v -5.355 c -18.14,-0.586 -23.785,-2.95 -16.648,-16.911 l 31.519,-74.007 30.282,68.636 c 5.359,12.207 2.675,20.813 -18.985,22.282 v 5.355 h 51.696 v -5.355 c -11.286,-2.075 -17.86,-8.598 -23.497,-21.684 l -40.984,-93.297 h -8.633" /><path
         id="path22"
         style="fill:#0d3258;fill-opacity:1;fill-rule:nonzero;stroke:none"
         d="m 1033.79,375.945 c -3.26,19.305 -15.13,32.102 -29.42,32.102 -9.804,0 -24.647,-4.457 -31.495,-32.102 z m -61.825,-7.718 c -0.559,-4.481 -1.149,-8.614 -1.149,-12.473 0,-30.906 21.668,-51.723 45.134,-51.723 14.88,0 26.46,5.946 37.76,19.332 l 3.26,-3.554 c -12.48,-15.778 -31.19,-30.637 -52.89,-30.637 -29.115,0 -51.682,26.449 -51.682,60.93 0,31.503 21.082,63.574 57.342,63.574 40.07,0 39.22,-28.809 49.01,-38.617 v -6.832 h -86.785" /><path
         id="path24"
         style="fill:#0d3258;fill-opacity:1;fill-rule:nonzero;stroke:none"
         d="m 1112.83,314.441 c 0,-12.175 4.47,-16.074 19.32,-16.074 h 11.29 v -5.629 h -70.43 v 5.629 c 15.16,0.328 19.91,6.551 19.91,22.321 v 68.617 l -19.91,7.156 v 5.043 l 33.86,11.879 h 5.96 v -31.485 h 0.59 c 14.85,24.372 18.41,29.997 28.23,29.997 3.58,0 4.45,-0.297 10.1,-2.672 2.99,-1.176 8.34,-2.391 15.45,-4.438 l -7.11,-17.851 c -4.47,0.593 -10.13,2.089 -15.77,4.781 -3.25,1.488 -6.82,2.949 -10.41,2.949 -5.31,0 -8.59,-3.601 -11.58,-7.73 -3.85,-5.329 -7.11,-10.422 -9.5,-14.844 v -57.649" /><path
         id="path26"
         style="fill:#0d3258;fill-opacity:1;fill-rule:nonzero;stroke:none"
         d="m 1183.93,322.773 c 3.54,-17.855 14.83,-27.945 28.21,-27.945 11.89,0 21.1,8.91 21.1,19.613 0,6.247 -1.49,10.106 -9.52,18.141 -21.1,21.086 -44.56,23.172 -44.56,47.828 0,19.61 15.47,33.266 38.03,33.266 8.02,0 16.34,-1.781 23.77,-4.75 l 0.6,-27.028 h -5.06 c -2.09,15.157 -11.87,24.649 -23.77,24.649 -9.79,0 -18.1,-6.84 -18.1,-16.629 0,-26.172 55.24,-30.613 55.24,-66.852 0,-19.328 -16.06,-33.894 -36.85,-33.894 -5.64,0 -9.78,0.906 -13.06,2.078 -3.27,0.906 -5.67,1.781 -8.01,1.781 -1.79,0 -3.57,-1.172 -5.06,-3.551 h -4.47 l -3.26,33.293 h 4.77" /><path
         id="path28"
         style="fill:#0d3258;fill-opacity:1;fill-rule:nonzero;stroke:none"
         d="m 1296.61,482.031 c 7.14,0 13.06,-5.039 13.06,-11.308 0,-6.223 -5.92,-11.285 -13.06,-11.285 -7.14,0 -12.77,5.062 -12.77,11.285 0,6.269 5.63,11.308 12.77,11.308 z m 12.18,-166.695 c 0,-10.418 5.65,-16.969 21.4,-16.969 v -5.629 h -65.98 v 5.629 c 18.15,0 24.68,5.953 24.68,21.727 v 59.707 c 0,11.605 -1.49,13.07 -9.21,14.574 l -13.99,2.68 v 4.742 l 38.64,13.383 h 4.46 v -99.844" /><path
         id="path30"
         style="fill:#0d3258;fill-opacity:1;fill-rule:nonzero;stroke:none"
         d="m 1407.97,410.414 -4.75,-13.074 h -31.98 v -69.231 c 0,-18.707 13.38,-24.972 19.61,-24.972 6.55,0 12.47,5.078 18.11,14.898 l 4.78,-4.472 c -7.13,-15.473 -18.74,-24.391 -32.42,-24.391 -17.5,0 -29.99,14.566 -29.99,34.465 v 73.703 h -13.67 v 4.769 c 11.6,5.625 21.7,19.297 28.52,37.735 h 5.06 v -29.43 h 36.73" /><path
         id="path32"
         style="fill:#0d3258;fill-opacity:1;fill-rule:nonzero;stroke:none"
         d="m 1518.9,377.438 c 8.92,22.582 3.26,27.035 -14.25,27.621 v 5.355 h 49.31 v -5.355 c -12.18,-1.469 -19,-9.809 -24.65,-23.77 l -50.54,-125.988 c -8.88,-21.981 -15.73,-31.793 -26.12,-31.793 -7.15,0 -12.18,4.469 -12.18,10.406 0,12.184 17.22,9.199 24.65,16.652 3.27,3.278 7.73,10.993 10.1,16.918 l 8.92,22.317 -46.04,97.726 c -5.67,12.18 -10.99,17.258 -23.49,17.532 v 5.355 h 59.74 v -5.355 c -18.13,-0.274 -20.22,-5.629 -14.26,-18.125 l 33.57,-72.493 25.24,62.997" /><path
         id="path34"
         style="fill:#0d3258;fill-opacity:1;fill-rule:nonzero;stroke:none"
         d="m 446.656,181.301 c -18.726,0 -35.355,-35.949 -35.355,-65.664 0,-24.9378 10.679,-37.137 20.789,-37.137 23.769,0 37.746,38.625 37.746,65.957 0,20.824 -10.109,36.844 -23.18,36.844 z m 15.157,11.004 c 8.609,0 27.035,-11.871 27.035,-43.707 0,-56.4417 -56.16,-81.1019 -70.121,-81.1019 -13.961,0 -26.442,22.2773 -26.442,46.9569 0,48.121 51.699,77.852 69.528,77.852" /><path
         id="path36"
         style="fill:#0d3258;fill-opacity:1;fill-rule:nonzero;stroke:none"
         d="m 499.449,178.926 0.899,5.644 c 7.136,0.895 14.269,2.09 21.699,3.883 4.453,24.356 13.363,49.895 30,66.535 10.394,10.395 23.484,16.047 35.062,16.047 11.602,0 21.09,-6.531 21.09,-14.254 0,-4.742 -3.57,-8.629 -8.332,-8.629 -9.777,0 -17.82,12.192 -26.429,12.192 -11.598,0 -21.083,-13.074 -25.254,-32.688 l -8.016,-38.926 h 25.547 l -2.973,-9.804 H 538.367 L 523.227,92.1563 C 511.637,25.6055 477.754,1.85156 449.828,1.85156 c -12.461,0 -22.871,6.22266 -22.871,13.66014 0,4.7578 4.762,8.918 9.82,8.918 10.977,0 16.914,-13.082 28.207,-13.082 6.848,0 12.77,3.2773 18.141,8.6171 14.844,14.8555 20.488,65.6368 21.676,72.7735 l 15.156,86.1877 h -20.508" /><path
         id="path38"
         style="fill:#0d3258;fill-opacity:1;fill-rule:nonzero;stroke:none"
         d="M 783.164,85.043 C 753.762,69.8711 716.031,66.3281 703.547,66.3281 c -65.067,0 -95.379,50.1989 -95.379,93.5939 0,44.558 31.211,100.422 103.707,100.422 31.781,0 52.883,-10.102 59.109,-10.102 2.688,0 5.075,0.578 6.848,2.067 h 4.156 v -48.133 h -5.929 c -8.051,37.14 -33.293,48.73 -60.922,48.73 -52.293,0 -79.043,-43.39 -79.043,-91.226 0,-60.895 42.793,-87.9183 76.957,-87.9183 13.679,0 28.812,2.961 45.469,11.2813 v 37.437 c 0,16.915 -5.938,22.579 -23.762,22.579 h -11.012 v 5.332 h 80.219 v -5.332 c -14.844,-0.899 -20.801,-5.954 -20.801,-18.715 V 85.043" /><path
         id="path40"
         style="fill:#0d3258;fill-opacity:1;fill-rule:nonzero;stroke:none"
         d="m 848.656,94.5391 c 0,-12.1719 5.657,-17.8164 17.235,-17.8164 h 5.066 v -5.6602 h -66.848 v 5.6602 c 19,0 24.645,5.6445 24.645,19.9101 V 240.121 c 0,8.356 -0.895,10.992 -9.203,11.918 l -13.356,1.492 v 5.02 l 38.016,12.187 h 4.445 V 94.5391" /><path
         id="path42"
         style="fill:#0d3258;fill-opacity:1;fill-rule:nonzero;stroke:none"
         d="m 944.426,126.344 c -5.653,-3.274 -10.403,-5.371 -17.531,-8.34 -18.133,-7.414 -24.957,-10.402 -24.957,-22.6056 0,-10.6757 8.593,-17.4921 17.535,-17.4921 4.746,0 8.32,1.4726 24.953,13.0664 z m -58.824,27.019 c -0.59,1.813 -0.899,2.684 -0.899,4.172 0,10.414 24.656,34.481 43.969,34.481 8.933,0 22.871,-4.172 31.183,-15.782 4.477,-6.246 4.477,-10.093 4.477,-25.531 v -39.816 c 0,-23.7737 0,-29.1253 7.742,-29.1253 3.242,0 7.114,0.3164 14.535,6.5352 l 1.489,-4.4649 C 972.074,70.7695 963.73,67.4961 958.684,67.4961 c -12.184,0 -13.368,13.3906 -13.661,18.1055 -20.496,-16.9024 -26.437,-18.1055 -34.492,-18.1055 -17.211,0 -27.609,9.8164 -27.609,24.3633 0,18.1096 16.043,24.3556 35.058,29.1136 6.239,1.507 16.043,5.058 26.446,11.312 v 23.473 c 0,8.32 0,13.09 -5.067,19.012 -3.839,4.769 -10.078,8.609 -16.629,8.609 -9.8,0 -18.429,-8.32 -18.429,-14.531 0,-1.809 0.304,-2.985 1.492,-5.664 l -20.191,-9.821" /><path
         id="path44"
         style="fill:#0d3258;fill-opacity:1;fill-rule:nonzero;stroke:none"
         d="m 1002.72,101.086 c 3.6,-17.8282 14.86,-27.9571 28.27,-27.9571 11.88,0 21.09,8.9492 21.09,19.6094 0,6.2617 -1.49,10.1167 -9.53,18.1487 -21.07,21.07 -44.554,23.183 -44.554,47.832 0,19.617 15.444,33.297 38.034,33.297 8.01,0 16.34,-1.805 23.76,-4.758 l 0.59,-27.047 h -5.04 c -2.09,15.16 -11.88,24.668 -23.78,24.668 -9.8,0 -18.12,-6.844 -18.12,-16.641 0,-26.144 55.27,-30.601 55.27,-66.875 0,-19.2849 -16.05,-33.8669 -36.84,-33.8669 -5.63,0 -9.81,0.8867 -13.08,2.0625 -3.25,0.9258 -5.65,1.7891 -8.02,1.7891 -1.8,0 -3.55,-1.1563 -5.04,-3.5508 h -4.49 l -3.244,33.2891 h 4.724" /><path
         id="path46"
         style="fill:#0d3258;fill-opacity:1;fill-rule:nonzero;stroke:none"
         d="m 1135.53,186.348 c -11.3,0 -28.82,-6.235 -28.82,-33.871 0,-17.516 8.92,-41.016 31.51,-41.016 17.22,0 28.52,14.269 28.52,34.785 0,25.535 -13.08,40.102 -31.21,40.102 z m 8.32,-176.1761 c 25.26,0 49.02,16.6328 49.02,35.3515 0,10.9844 -9.19,16.6407 -19.91,17.5118 -7.71,0.9101 -45.14,1.2226 -53.76,2.3945 -8.33,-9.7891 -19.32,-13.9649 -19.32,-25.5234 0,-14.0079 19.6,-29.7344 43.97,-29.7344 z m 67.46,154.1801 c -4.46,0.285 -18.44,1.511 -29.71,3.597 1.77,-3.312 5.04,-9.508 5.04,-19.023 0,-21.996 -18.99,-43.11 -51.99,-43.11 -5.64,0 -8.31,0.61 -13.68,2.387 -4.74,-5.055 -18.1,-8.3124 -18.1,-15.1366 0,-7.4648 12.76,-10.4101 42.47,-10.6992 33.59,-0.2891 45.17,-1.7969 54.09,-10.7109 7.12,-7.1485 8.9,-14.5469 8.9,-20.7774 0,-19.3203 -26.15,-49.02734 -81.12,-49.02734 -30.89,0 -45.74,13.66014 -45.74,28.22654 0,17.2188 18.13,19.8867 31.78,36.5078 -16.03,1.5157 -28.22,11.5977 -28.22,21.1055 0,13.6716 19.93,14.2736 30.31,21.9996 -18.12,7.129 -28.53,19.903 -28.53,36.852 0,25.566 22.88,45.473 52.29,45.473 13.67,0 25.27,-4.172 33.29,-11.903 13.35,0 25.84,1.508 38.92,2.977 v -18.738" /><path
         id="path48"
         style="fill:#0d3258;fill-opacity:1;fill-rule:nonzero;stroke:none"
         d="m 1285.68,74.6367 c 17.53,0 37.41,17.8399 37.41,47.5393 0,33.871 -20.77,62.703 -45.73,62.703 -19.62,0 -37.75,-20.242 -37.75,-45.774 0,-35.957 20.53,-64.4683 46.07,-64.4683 z m -4.17,117.3793 c 36.26,0 63.87,-27.036 63.87,-62.422 0,-35.0549 -27.61,-62.0979 -62.98,-62.0979 -36.83,0 -65.06,26.7461 -65.06,61.4919 0,41 33.28,63.028 64.17,63.028" /><path
         id="path50"
         style="fill:#0d3258;fill-opacity:1;fill-rule:nonzero;stroke:none"
         d="m 1483.27,68.3828 -35.37,83.7932 -35.66,-83.7932 h -8.29 l -44.31,99.8552 c -4.14,9.207 -8.33,13.66 -21.98,15.141 v 5.351 h 57.65 v -5.351 c -17.54,-0.879 -18.73,-5.934 -12.47,-19.887 l 32.07,-71.6326 29.13,68.9456 c -6.54,15.129 -11.6,20.496 -22,21.695 l -7.13,0.879 v 5.351 h 61.5 v -5.351 c -14.55,-0.289 -18.99,-4.742 -12.77,-19.586 l 29.11,-70.7266 28.53,69.5076 c 6.54,15.762 1.49,20.805 -17.24,20.805 v 5.351 h 49.92 v -5.351 c -11.28,-1.156 -18.42,-6.82 -24.37,-21.375 l -38.31,-93.6212 h -8.01" /><path
         id="path52"
         style="fill:#0d3258;fill-opacity:1;fill-rule:nonzero;stroke:none"
         d="M 0.0429688,477.535 310.852,477.559 c 0,0 0.371,-147.27 -0.008,-254.204 C 310.902,144.594 213.59,57.7305 155.359,54.7227 90.7969,59.8828 0.0429688,150.184 0.0429688,222.398 v 255.137" /><path
         id="path54"
         style="fill:#a3e1f9;fill-opacity:1;fill-rule:nonzero;stroke:none"
         d="m 153.148,96.6094 h 9.87891 v 273.785 H 153.148 Z" /><path
         id="path56"
         style="fill:#fccc22;fill-opacity:1;fill-rule:nonzero;stroke:none"
         d="m 223.344,372.074 c 8.82,0.051 23.086,-0.039 32.34,-0.039 2.871,0 7.578,0.852 4.941,-5.488 -2.34,-5.609 -5.703,-13.434 -7.156,-16.797 -4.875,0 -24.664,-0.016 -24.715,0.086 -1.574,3.66 -3.836,8.879 -6.707,15.512 -1.524,3.535 -2.281,6.726 1.297,6.726 z m -4.477,-95.961 h 48.797 c 14.402,0 15.715,-1.976 16.731,-5.066 -0.606,4.797 -3.711,29.367 -5.875,47.156 -0.567,4.645 -2.196,17.41 -8.633,25.02 -2.035,2.445 -3.016,3.672 -7.391,5.543 0.34,0.968 4.32,10.867 7.274,18.863 1.519,4.086 -0.122,8.152 -3.243,10.055 -2.714,1.632 -6.199,1.707 -8.691,1.707 -16.723,0 -29.637,-0.032 -34.793,-0.032 -8.938,0 -13.086,-5.683 -10.355,-12.546 2.074,-5.204 5.519,-14.075 7.093,-18.125 -10.992,-3.672 -14.625,-18.676 -16.222,-31.676 -2.653,-21.91 -6.25,-51.137 -6.508,-52.891 -0.387,-2.781 -0.852,-5.09 3.719,-5.305 8.671,-0.554 18.796,-0.617 35.847,-0.175 1.645,-0.926 3.774,-1.504 6.563,-1.411 2.765,0.043 4.785,0.778 6.234,1.801 6.953,0.25 14.863,0.574 23.906,0.938 -7.945,0.187 -15.39,0.414 -22.281,0.605 2.484,3.082 2.231,7.301 2.004,8.125 -1.031,-11.426 -15.871,-10.332 -12.199,1.789 -1.59,0 -5.723,0 -8.356,-2.148 -0.703,-1.77 -0.457,-4.731 1.235,-7.18 -9.629,0.422 -17.567,0.778 -23.301,1.102 -2.949,0.144 -4.371,2.269 -2.879,4.238 6.219,8.113 6.574,9.613 11.324,9.613" /><path
         id="path58"
         style="fill:#ffffff;fill-opacity:1;fill-rule:nonzero;stroke:none"
         d="m 155.777,97.7813 c 0,-3.211 -2.144,-5.8282 -4.804,-5.8282 -2.649,0 -4.817,2.6172 -4.817,5.8282 v 27.1677 c 0,3.188 2.168,5.813 4.817,5.813 2.66,0 4.804,-2.625 4.804,-5.813 V 97.7813" /><path
         id="path60"
         style="fill:#df9824;fill-opacity:1;fill-rule:nonzero;stroke:none"
         d="m 88.7852,420.398 c 1.539,0.645 3.7343,0.481 5.7656,0.481 -2.2461,1.871 -4.2813,2.598 -5.5117,2.926 -2.8711,10.863 -18.6055,7.914 -20.1563,-1.719 -0.5586,-3.484 -12.9101,-5.012 -27.0703,-23.945 -6.5312,-8.7 -15.543,-16.243 -18.2734,-17.981 -2.75,-1.707 3.9453,-1.207 7.039,2.067 2.8985,-2.926 8.5899,5.855 17.1641,7.332 2.2695,0.363 30.7539,5.539 23.2422,21.847 10.0429,-12.91 -6.6914,-22.191 -17.2227,-23.222 0.9258,-0.485 6.3985,-0.914 7.0274,-1.164 1.5742,-0.555 -0.4649,-2.465 0.8125,-3.192 3.0703,-1.695 9.1562,-7.441 9.1562,-7.441 0,0 3.4766,1.179 1.8985,2.746 -4.6954,3.094 -5.9649,4.039 -7.168,5.972 -0.082,0.114 -1.6016,2.977 1.4922,3.79 4.4648,0.359 19.0703,5.546 16.5859,23.859 -0.3984,2.894 1.6328,6.031 5.2188,7.644" /><path
         id="path62"
         style="fill:#0d3258;fill-opacity:1;fill-rule:nonzero;stroke:none"
         d="m 86.6563,423.441 c 0,-0.961 -0.7149,-1.714 -1.586,-1.714 -0.8555,0 -1.5742,0.753 -1.5742,1.714 0,0.934 0.7187,1.723 1.5742,1.723 0.8711,0 1.586,-0.789 1.586,-1.723" /><path
         id="path64"
         style="fill:#ffffff;fill-opacity:1;fill-rule:nonzero;stroke:none"
         d="m 160.238,93.3203 h 5.26563 v 38.4648 H 160.238 Z" /><path
         id="path66"
         style="fill:#fccc22;fill-opacity:1;fill-rule:nonzero;stroke:none"
         d="m 170.191,87.3203 c 1.563,1.6445 2.512,3.8594 2.512,6.3125 0,5.0352 -4.086,9.1402 -9.148,9.1402 h -15.567 c -5.054,0 -9.164,-4.105 -9.164,-9.1402 0,-2.3711 0.906,-4.4922 2.364,-6.1172 -1.879,-1.6953 -5.243,-4.9414 -6.176,-6.0508 10.453,-4.6132 30.301,-4.2382 41.488,0.0665 -1.051,0.9062 -4.629,4.1875 -6.309,5.789" /><path
         id="path68"
         style="fill:#a3e1f9;fill-opacity:1;fill-rule:nonzero;stroke:none"
         d="m 155.535,403.043 c 0,-0.227 -0.023,-0.172 -0.023,0.066 -6.758,6.039 -28.461,8.618 -42.414,5.055 0.91,-1.695 2.035,-7.113 2.632,-9.277 20.602,6.855 39.782,-3.164 39.782,-3.164 0,0.047 0,0.132 0.008,0.199 0,-0.067 0,-0.172 0.015,-0.223 0,0 19.184,10.004 39.797,3.137 0.566,2.168 1.715,7.574 2.637,9.246 -13.981,3.598 -35.672,1.027 -42.434,-5.039" /><path
         id="path70"
         style="fill:#ffffff;fill-opacity:1;fill-rule:nonzero;stroke:none"
         d="m 161.777,158.27 h 3.06641 V 370.411 H 161.777 Z" /><path
         id="path72"
         style="fill:#ffffff;fill-opacity:1;fill-rule:nonzero;stroke:none"
         d="m 146.313,173.559 h 9.83594 V 370.395 H 146.313 Z" /><path
         id="path74"
         style="fill:#0d3258;fill-opacity:1;fill-rule:nonzero;stroke:none"
         d="m 165.547,294.672 c 0.641,2.301 0.941,7.992 0,9.781 -4.609,0 -11.781,-0.035 -15.961,0.067 9.57,-3.489 15.961,-9.848 15.961,-9.848" /><path
         id="path76"
         style="fill:#0d3258;fill-opacity:1;fill-rule:nonzero;stroke:none"
         d="m 131.055,119.418 c 5.504,-0.828 35.023,-2.223 35.023,-2.223 l 4.82,-12.523 c 0,0 -25.777,0.676 -39.843,14.746" /><path
         id="path78"
         style="fill:#a3e1f9;fill-opacity:1;fill-rule:nonzero;stroke:none"
         d="m 251.887,209.203 c -9.235,5.969 -20.434,1.383 -32.567,11.555 0.043,-31.594 23.051,-37.93 10.11,-46.36 -11.547,-7.543 -22.719,-9.418 -34.325,-8.453 0.985,1.578 2.723,4.453 4.11,5.879 -14.227,1.832 -26.625,0.805 -31.828,0.196 -17.707,5.203 -37.352,11.769 -61.008,12.128 4.297,-3.503 8.519,-9.574 8.519,-20.043 -3.589,14.137 -18.2886,21.52 -25.5035,24.336 -2.1601,0.817 -4.1797,1.196 -6.2851,1.539 -1.0586,-1.441 -3.3399,-3.871 -7.1719,-5.304 -2.1875,1.164 -3.9727,-0.906 -3.6719,-1.586 0.1211,-0.336 0.0782,-0.672 -0.1836,-1.012 -2.1132,-2.738 -9.0507,-1.433 -14.207,0.36 -5.9453,2.05 -5.707,-2.047 -4.5547,-4.098 1.8633,-3.301 3.6719,-5.445 4.5508,-7.277 7.9023,-16.133 13.7539,-26.727 31.2695,-36.743 16.6444,-12.281 37.5624,-18.613 58.8474,-19.336 7.766,-2.781 25.602,-7.699 47.965,-4.125 -4.348,2.926 -8.691,5.817 -10.133,8.719 28.422,8.211 52.989,26.883 63.043,55.067 0.117,0.304 0.223,0.617 0.332,0.925 1.801,6.172 -4.175,14.371 -12.668,6.285 7.356,17.676 19.528,10.024 16.95,-0.429 9.707,13.078 22.699,27.129 40.043,32.461 -15.848,7.304 -31.407,0.972 -41.633,-4.684" /><path
         id="path80"
         style="fill:#0d3258;fill-opacity:1;fill-rule:nonzero;stroke:none"
         d="m 165.852,236.766 c 0.656,2.328 0.929,8.031 0,9.781 -4.622,0 -11.782,-0.059 -15.942,0.07 9.543,-3.492 15.942,-9.851 15.942,-9.851" /><path
         id="path82"
         style="fill:#fccc22;fill-opacity:1;fill-rule:nonzero;stroke:none"
         d="m 172.563,255.375 c 0,-5.078 -4.161,-9.18 -9.282,-9.18 h -15.777 c -5.121,0 -9.281,4.102 -9.281,9.18 0,5.059 4.16,9.137 9.281,9.137 h 15.777 c 5.121,0 9.282,-4.078 9.282,-9.137" /><path
         id="path84"
         style="fill:#df9824;fill-opacity:1;fill-rule:nonzero;stroke:none"
         d="m 163.02,249.313 c -9.254,-0.098 -17.207,0 -17.207,0 0,0 13.031,0.781 21.3,9.601 2.168,-1.445 2.575,-9.574 -4.093,-9.601" /><path
         id="path86"
         style="fill:#0d3258;fill-opacity:1;fill-rule:nonzero;stroke:none"
         d="m 166.008,178.055 c 0.648,2.297 0.91,8.031 0,9.781 -4.625,0 -11.766,-0.059 -15.949,0.074 9.55,-3.5 15.949,-9.855 15.949,-9.855" /><path
         id="path88"
         style="fill:#fccc22;fill-opacity:1;fill-rule:nonzero;stroke:none"
         d="m 172.691,196.934 c 0,-5.079 -4.152,-9.176 -9.273,-9.176 h -15.777 c -5.125,0 -9.266,4.097 -9.266,9.176 0,5.062 4.141,9.113 9.266,9.113 h 15.777 c 5.121,0 9.273,-4.051 9.273,-9.113" /><path
         id="path90"
         style="fill:#df9824;fill-opacity:1;fill-rule:nonzero;stroke:none"
         d="m 163.137,190.875 c -9.266,-0.09 -17.192,0.012 -17.192,0.012 0,0 13.008,0.722 21.285,9.601 2.172,-1.468 2.594,-9.574 -4.093,-9.613" /><path
         id="path92"
         style="fill:#fccc22;fill-opacity:1;fill-rule:nonzero;stroke:none"
         d="m 141.555,328.145 h 27.8945 v 27.3828 H 141.555 Z" /><path
         id="path94"
         style="fill:#df9824;fill-opacity:1;fill-rule:nonzero;stroke:none"
         d="m 169.449,328.184 c -4.738,-1.145 -4.429,-5.11 -4.605,-6.567 0,0 -11.246,-0.078 -18.633,0 0.059,0.422 0.23,5.848 -4.656,6.567 0,0 26.101,-0.024 27.894,0" /><path
         id="path96"
         style="fill:#df9824;fill-opacity:1;fill-rule:nonzero;stroke:none"
         d="m 157.844,327.801 h 7.55469 v 27.7266 H 157.844 Z" /><path
         id="path98"
         style="fill:#fccc22;fill-opacity:1;fill-rule:nonzero;stroke:none"
         d="m 67.1445,185.273 c -1.3984,0.528 -2.1562,1.715 -2.5351,2.614 -0.9024,1.996 -0.875,4.668 0.1015,7.195 0.9688,2.481 2.7344,4.508 4.7813,5.406 0.8828,0.387 2.2422,0.727 3.6289,0.203 2.0547,-0.824 3.2227,-3.113 3.2227,-5.863 0,-1.269 -0.2461,-2.621 -0.7579,-3.941 -0.9531,-2.504 -2.75,-4.52 -4.7656,-5.434 -0.8945,-0.371 -2.2422,-0.746 -3.6758,-0.18 z m 0.8594,18.536 c -2.9336,-1.286 -5.3906,-3.985 -6.6953,-7.414 -1.3438,-3.442 -1.3438,-7.063 -0.0547,-10.028 0.9375,-2.125 2.5703,-3.746 4.5859,-4.531 1.9922,-0.762 4.2969,-0.648 6.4454,0.301 2.9375,1.269 5.3867,3.992 6.7187,7.394 2.3828,6.16 0.3125,12.657 -4.5469,14.555 -2.0117,0.797 -4.3047,0.695 -6.4531,-0.277" /><path
         id="path100"
         style="fill:#a3e1f9;fill-opacity:1;fill-rule:nonzero;stroke:none"
         d="m 72.1406,186.25 c -1.5781,0.504 -5.4492,1.637 -10.1172,1.785 -3.3086,0.106 -6.5312,2.016 -6.3398,2.988 0.1836,0.704 1.043,1.063 2.4297,1.262 3.1953,0.449 10.1172,0.078 17.5898,-1.133 -0.625,-1.8 -1.6406,-3.468 -3.5625,-4.902" /><path
         id="path102"
         style="fill:#ef2f2a;fill-opacity:1;fill-rule:nonzero;stroke:none"
         d="m 83.9102,408.594 c -0.1172,-13.918 -10.7696,-18.301 -13.836,-19.102 1.0156,3.086 5.3594,17.52 13.836,19.102" /><path
         id="path104"
         style="fill:#fccc22;fill-opacity:1;fill-rule:nonzero;stroke:none"
         d="m 172.789,313.52 c 0,-5.079 -4.137,-9.207 -9.289,-9.207 h -15.758 c -5.14,0 -9.281,4.128 -9.281,9.207 0,5.035 4.141,9.132 9.281,9.132 H 163.5 c 5.152,0 9.289,-4.097 9.289,-9.132" /><path
         id="path106"
         style="fill:#df9824;fill-opacity:1;fill-rule:nonzero;stroke:none"
         d="m 163.262,307.457 c -9.27,-0.105 -17.227,0.004 -17.227,0.004 0,0 13.031,0.781 21.313,9.613 2.168,-1.48 2.578,-9.586 -4.086,-9.617" /><path
         id="path108"
         style="fill:#ffffff;fill-opacity:1;fill-rule:nonzero;stroke:none"
         d="m 101.453,180.723 c 10.055,-6.723 13.445,-16.618 13.445,-16.618 0,0 3.344,8.282 -1.23,14.704 9.145,2.66 25.027,-1.5 39.363,-7.11 21.032,-8.238 36.77,-10.976 52.793,-8.238 16.008,2.719 24.446,6.051 29.602,14.039 2.734,4.277 10.828,3.367 8.551,-3.035 -2.289,-6.418 -12.219,-24.723 -30.985,-29.777 -18.769,-5.02 -49.734,-13.434 -95.527,-1.969 -12.25,3.066 -41.0314,10.707 -52.7892,25.816 -2.3555,3.031 -2.9727,8.668 -3.082,9.559 -0.1368,1.094 0.582,1.656 3.1523,1.211 8.0703,-1.418 9.6055,1.664 12.6016,5.058 3.3086,0.438 14.9453,2.453 24.1053,-3.64" /><path
         id="path110"
         style="fill:#409adb;fill-opacity:1;fill-rule:nonzero;stroke:none"
         d="M 240.609,175.762 C 226.617,149.148 199.555,145.02 171.23,144.16 c -11.484,-0.32 -22.964,1.11 -32.839,3.637 8.32,-0.844 16.937,-0.176 22.195,1.652 -2.051,10.672 -20.266,18.418 -32.969,19.11 -2.414,2.746 -3.101,6.304 -8.945,8.375 4.125,-3.774 3.789,-9.067 5.844,-11.797 10.39,-2.114 23.078,-4.77 29.191,-12.942 -2.16,-2.765 -20.957,-1.226 -31.219,1.11 -4.422,1.625 -9.027,4.293 -11.476,9.074 -4.895,-5.477 -12.6722,-3.512 -20.6682,0.476 -0.1133,3.106 -2.0235,5.833 -6.1524,6.633 0.8906,-1.359 1.125,-2.769 1.1367,-3.918 -9.039,5.2 -17.6445,11.567 -21.9687,11.235 -6.1328,-0.461 13.3828,-34.707 29.8672,-38.352 48.9574,-28.223 130.7654,-15.832 150.1524,31.809 2.73,6.875 0.32,11.34 -2.77,5.5" /><path
         id="path112"
         style="fill:#ffffff;fill-opacity:1;fill-rule:nonzero;stroke:none"
         d="m 85.9844,166.031 c 0.2773,-2.976 -2.0703,-5.664 -5.2461,-5.968 -3.1641,-0.368 -5.9805,1.835 -6.2813,4.839 -0.289,3.004 2.043,5.692 5.2149,6 3.1758,0.309 5.9922,-1.863 6.3125,-4.871" /><path
         id="path114"
         style="fill:#0d3258;fill-opacity:1;fill-rule:nonzero;stroke:none"
         d="m 83.2188,165.465 c 0,-1.477 -1.3555,-2.649 -3.0274,-2.649 -1.6367,0 -2.9883,1.172 -2.9883,2.649 0,1.469 1.3516,2.676 2.9883,2.676 1.6719,0 3.0274,-1.207 3.0274,-2.676" /><path
         id="path116"
         style="fill:#ffffff;fill-opacity:1;fill-rule:nonzero;stroke:none"
         d="m 223.523,214.266 c -3.363,-11.586 10.989,-27.219 10.989,-27.219 0,0 -6.492,20.277 -10.989,27.219" /><path
         id="path118"
         style="fill:#ffffff;fill-opacity:1;fill-rule:nonzero;stroke:none"
         d="m 233.594,211.777 c -4.934,-6.777 4.344,-22.23 4.344,-22.23 0,0 -0.512,12.351 -4.344,22.23" /><path
         id="path120"
         style="fill:#ffffff;fill-opacity:1;fill-rule:nonzero;stroke:none"
         d="m 249.137,194.141 c 3.906,8.472 11.699,16.933 19.949,19.925 -17.191,-2.078 -21.074,-13.503 -19.949,-19.925" /><path
         id="path122"
         style="fill:#ffffff;fill-opacity:1;fill-rule:nonzero;stroke:none"
         d="m 155.496,451.051 c -7.25,14.047 -17.613,3.226 -35.773,8.847 -3.207,-14.859 -6.418,-41.445 -7.325,-46.015 12.403,-3.731 23.321,7.871 38.137,-1.793 -1.59,19.168 4.594,35.137 4.594,35.137 0,0 0.187,2.343 0.367,3.824" /><path
         id="path124"
         style="fill:#a3e1f9;fill-opacity:1;fill-rule:nonzero;stroke:none"
         d="m 155.547,451.102 c -1.442,2.492 -2.82,4.605 -5.219,5.968 -2.137,-22.816 -2.672,-27.769 -9.918,-41.168 4.508,-0.57 7.828,-2.234 10.149,-3.871 -1.618,19.203 4.968,34.282 4.968,34.282 0,0 -0.031,3.98 0.02,4.789" /><path
         id="path126"
         style="fill:#ffffff;fill-opacity:1;fill-rule:nonzero;stroke:none"
         d="m 191.324,459.965 c -18.156,-5.621 -28.547,5.195 -35.777,-8.863 -0.02,-4.789 -0.035,-40.207 0.027,-42.852 17.414,16.266 29.36,1.578 43.078,5.699 -0.918,4.571 -4.125,31.145 -7.328,46.016" /><path
         id="path128"
         style="fill:#fccc22;fill-opacity:1;fill-rule:nonzero;stroke:none"
         d="m 150.488,370.395 h 10.0977 v 11.7383 H 150.488 Z" /><path
         id="path130"
         style="fill:#fccc22;fill-opacity:1;fill-rule:nonzero;stroke:none"
         d="m 155.598,393.383 5.027,-8.778 -10.187,-0.05 5.16,8.828" /><path
         id="path132"
         style="fill:#199445;fill-opacity:1;fill-rule:nonzero;stroke:none"
         d="m 70.6367,358.715 v 0.07 c -0.082,0.031 -0.0742,-0.012 0,-0.07" /><path
         id="path134"
         style="fill:#73c82c;fill-opacity:1;fill-rule:nonzero;stroke:none"
         d="m 111.27,301.211 c 0,0 13.851,6.836 15.222,13.871 -4.285,4.117 -15.113,4.57 -15.113,4.57 0,0 12.434,9.469 11.91,16.34 -6.211,2.891 -17.266,1.203 -17.266,1.203 5.133,7.106 6.594,12.746 6.395,17.707 -6.465,1.075 -16.4414,-2.754 -16.4414,-2.754 0,0 3.3437,11.922 0.0547,18.102 -5.9766,1.602 -14.4102,-8.937 -14.4102,-8.937 0,0 -3,13.031 -9.9961,19.964 -7.0156,-6.933 -10.0937,-19.964 -10.0937,-19.964 0,0 -8.418,10.539 -14.4258,8.937 -3.25,-6.18 0.082,-18.102 0.082,-18.102 0,0 -9.9766,3.829 -16.4727,2.754 -0.1718,-4.961 1.2969,-10.601 6.4258,-17.707 0,0 -11.082,1.688 -17.2617,-1.203 -0.5234,-6.871 11.9024,-16.34 11.9024,-16.34 0,0 -10.8438,-0.453 -15.1133,-4.57 1.3789,-7.035 15.2383,-13.871 15.2383,-13.871 0,0 -8.254,-1.695 -13.2852,-7.402 3.207,-4.262 10.4297,-8.336 16.0781,-9.27 -4.8828,-3.934 -7.6172,-7.004 -8.8515,-9.301 7.9336,-6.41 24.5625,-7.316 41.1914,-2.136 0,-3.184 0.0507,-28.848 -3.8438,-40.606 H 79.957 c -3.8789,11.758 -3.8359,37.422 -3.8359,40.606 16.6289,-5.18 33.2809,-4.274 41.1879,2.136 -1.25,2.297 -3.954,5.367 -8.825,9.301 5.641,0.934 12.844,5.008 16.055,9.27 -5.047,5.707 -13.269,7.402 -13.269,7.402" /><path
         id="path136"
         style="fill:#199948;fill-opacity:1;fill-rule:nonzero;stroke:none"
         d="m 96.1211,300.754 c 1.5625,0.863 9.6089,3.316 13.7229,10.492 -4.114,3.988 -13.7229,4.137 -13.7229,4.137 0,0 8.5509,5.629 11.4419,14.055 -7.333,2.132 -14.9497,0 -14.9497,0 0,0 6.25,8.859 7.0195,16.328 -7.0195,-0.766 -14.4922,-4.461 -14.4922,-4.461 2.1211,4.613 3.1914,11.14 2.2774,16.816 -3.5078,-0.691 -6.7032,-4.695 -8.625,-7.187 -1.7813,5.683 -4.8047,7.472 -6.8711,8.621 -3.4219,-5.028 -4.1055,-8.285 -3.6797,-15.168 1.1562,1.14 2.9844,2.957 5.9726,4.672 1.8165,-9.825 -1.6796,-16.973 -1.6796,-16.973 0,0 4.3242,2.824 10.0546,3.496 0.2383,-5.41 -1.75,-11.035 -7.4687,-17.672 0,0 5.0312,3.035 10.8477,3.5 -0.9297,-7.637 -5.5938,-12.738 -10.4024,-17.097 3.207,1.507 8.7109,1.367 12.5195,0.14 -1.9726,-5.797 -6.5,-8.711 -13.1054,-12.344 4.0937,0 8.3008,-0.543 10.6601,-2.132 -2.6562,-4.973 -9.1406,-7.336 -13.6367,-8.622 10.3828,-3.957 20.4414,-5.609 30.2931,-3.218 -0.688,2.933 -4.422,6.5 -8.7775,9 3.9805,0.91 9.9185,2.148 15.1135,6.582 -3.36,3.359 -7.485,5.636 -12.5119,7.035" /><path
         id="path138"
         style="fill:#a3e1f9;fill-opacity:1;fill-rule:nonzero;stroke:none"
         d="M 40.4688,75.7266 C 42.8242,67.875 36.543,52.6719 41.0078,43.8945 37.1992,44.0234 12.9688,39.5938 9.39453,42.7305 5.85938,45.8594 -3.5625,52.5508 5.85938,57.6797 15.3008,62.7734 39.1602,71.9492 40.4688,75.7266" /><path
         id="path140"
         style="fill:#a3e1f9;fill-opacity:1;fill-rule:nonzero;stroke:none"
         d="m 271.699,76.5273 c 2.774,-25.1601 -1.449,-27.9882 -1.191,-35.2148 2.367,-0.6133 21.633,-4.6172 28.437,-0.9687 6.809,3.6796 11.524,12.5859 8.375,16.25 -3.14,3.6835 -18.843,13.6367 -25.129,14.6757 -6.289,1.0782 -8.777,3.3985 -10.492,5.2578" /><path
         id="path142"
         style="fill:#0d3258;fill-opacity:1;fill-rule:nonzero;stroke:none"
         d="m 301.777,64.3867 c -10.464,5.6172 -26.007,9.0078 -34.785,21.0117 -3.301,-12.082 4.692,-19.0273 4.371,-36.8086 7.403,13.8086 1.309,17.1993 2.559,23.75 5.957,-7.5937 14.891,-8.6914 21.129,-11.9335 7.957,-4.168 12.836,-13.3555 -3.637,-13.2969 -32.172,0.0664 -238.6367,-0.043 -271.5156,-0.043 -17.00387,0 -12.02731,9.125 -4.0625,13.2813 6.2461,3.2461 15.2852,4.3437 21.2227,12.1484 1.2422,-6.5391 -4.918,-9.8945 2.5117,-23.7109 -0.332,17.7851 7.586,24.4296 4.4453,36.6132 C 35.2422,73.3945 19.4531,70.0039 8.96875,64.3867 0.0625,59.6523 0.0429688,56.4883 0.0429688,41.2305 0.0429688,31.0078 0.09375,18.0938 0,9.44922 -0.0585938,3.36719 7.01172,-0.226563 15.4492,0.0117188 c 38.6758,0 241.1678,0 279.8558,0 8.418,-0.2382818 15.597,3.2695312 15.597,9.3437512 0.051,8.67583 -0.089,21.73833 0,31.95703 0.129,15.6836 -0.226,18.3398 -9.125,23.0742" /><path
         id="path144"
         style="fill:#ffffff;fill-opacity:1;fill-rule:nonzero;stroke:none"
         d="m 15.5898,33.8867 h 5.9922 l 4.1641,-11.5976 c 0.0898,-0.2383 0.3203,-1.1758 0.6758,-2.7774 0.3984,1.6016 0.6445,2.5391 0.7461,2.7774 l 4.0781,11.5976 h 6.0195 L 28.5898,13.1602 h -4.2929 l -8.7071,20.7265" /><path
         id="path146"
         style="fill:#ffffff;fill-opacity:1;fill-rule:nonzero;stroke:none"
         d="m 40.5313,13.1602 h 5.73438 V 33.8868 H 40.5313 Z" /><path
         id="path148"
         style="fill:#ffffff;fill-opacity:1;fill-rule:nonzero;stroke:none"
         d="m 63.3438,20.8672 -2.1055,6.8516 c -0.0938,0.3437 -0.3438,1.2656 -0.711,2.7968 -0.375,-1.5312 -0.6289,-2.4531 -0.7226,-2.7968 l -2.0859,-6.8516 z m -6.375,13.0195 h 7.0742 l 7.1523,-20.7265 h -5.6289 l -1.0273,3.7265 h -8.0235 l -1.0898,-3.7265 h -5.6055 l 7.1485,20.7265" /><path
         id="path150"
         style="fill:#ffffff;fill-opacity:1;fill-rule:nonzero;stroke:none"
         d="m 82.3711,33.8867 h 6.0078 l 4.1406,-11.5976 c 0.0977,-0.2383 0.3086,-1.1758 0.6993,-2.7774 0.3671,1.6016 0.6289,2.5391 0.7148,2.7774 l 4.1172,11.5976 h 5.9922 L 95.3555,13.1602 h -4.2813 l -8.7031,20.7265" /><path
         id="path152"
         style="fill:#ffffff;fill-opacity:1;fill-rule:nonzero;stroke:none"
         d="m 107.172,33.8867 h 12.699 V 29.332 h -7.199 v -3.6054 h 6.785 v -4.4219 h -6.785 V 17.793 h 7.199 v -4.6328 h -12.699 v 20.7265" /><path
         id="path154"
         style="fill:#ffffff;fill-opacity:1;fill-rule:nonzero;stroke:none"
         d="m 131.402,24.0859 c 2.36,0 3.496,0.7422 3.496,2.5782 0,2.1601 -1.07,2.8515 -3.414,2.8515 h -1.136 v -5.4297 z m -6.363,9.8008 h 5.918 c 0.121,0 0.227,0 0.344,0 2.863,0 5.078,-0.0312 6.859,-1.3906 1.481,-1.1641 2.289,-2.9258 2.289,-5.0977 0,-3.1953 -1.605,-5.2421 -4.621,-5.8984 l 5.649,-8.3398 h -6.379 l -4.75,8.1171 v -8.1171 h -5.309 v 20.7265" /><path
         id="path156"
         style="fill:#ffffff;fill-opacity:1;fill-rule:nonzero;stroke:none"
         d="m 145.211,13.1602 h 5.71094 V 33.8868 H 145.211 Z" /><path
         id="path158"
         style="fill:#ffffff;fill-opacity:1;fill-rule:nonzero;stroke:none"
         d="m 159.902,28.9844 h -4.609 v 4.9023 h 14.895 v -4.9023 h -4.641 V 13.1602 h -5.645 v 15.8242" /><path
         id="path160"
         style="fill:#ffffff;fill-opacity:1;fill-rule:nonzero;stroke:none"
         d="m 185.48,20.8672 -2.121,6.8516 c -0.093,0.3437 -0.312,1.2656 -0.695,2.7968 -0.363,-1.5312 -0.633,-2.4531 -0.738,-2.7968 l -2.071,-6.8516 z m -6.375,13.0195 h 7.047 l 7.164,-20.7265 h -5.601 l -1.059,3.7265 h -8.011 l -1.071,-3.7265 h -5.636 l 7.167,20.7265" /><path
         id="path162"
         style="fill:#ffffff;fill-opacity:1;fill-rule:nonzero;stroke:none"
         d="m 202.605,17.0273 c 1.551,0 2.583,0.9024 2.583,2.129 0,1.6523 -1.133,2.1484 -3.493,2.7695 -3.715,0.9609 -5.543,2.4648 -5.543,5.707 0,3.8555 2.801,6.7227 7.161,6.7227 2.312,0 4.328,-0.5899 6.113,-1.8399 l -1.766,-4.0429 c -1.293,1.0976 -2.676,1.6406 -3.961,1.6406 -1.386,0 -2.297,-0.7539 -2.297,-1.7305 0,-1.4883 1.442,-1.8125 3.309,-2.3086 3.668,-0.9765 5.719,-2.3281 5.719,-6.1719 0,-4.2812 -3.086,-7.3007 -7.946,-7.3007 -2.918,0 -5.14,0.9453 -7.351,3.0468 l 2.543,4.1993 c 1.66,-1.8829 3.285,-2.8204 4.929,-2.8204" /><path
         id="path164"
         style="fill:#ffffff;fill-opacity:1;fill-rule:nonzero;stroke:none"
         d="m 222.781,33.8867 h 6.004 l 4.149,-11.5976 c 0.078,-0.2383 0.32,-1.1758 0.675,-2.7774 0.391,1.6016 0.637,2.5391 0.727,2.7774 l 4.117,11.5976 h 6.012 L 235.77,13.1602 h -4.286 l -8.703,20.7265" /><path
         id="path166"
         style="fill:#ffffff;fill-opacity:1;fill-rule:nonzero;stroke:none"
         d="m 247.73,13.1602 h 5.71094 V 33.8868 H 247.73 Z" /><path
         id="path168"
         style="fill:#ffffff;fill-opacity:1;fill-rule:nonzero;stroke:none"
         d="m 262.422,28.9844 h -4.602 v 4.9023 h 14.891 v -4.9023 h -4.648 V 13.1602 h -5.641 v 15.8242" /><path
         id="path170"
         style="fill:#ffffff;fill-opacity:1;fill-rule:nonzero;stroke:none"
         d="m 287.992,20.8672 -2.125,6.8516 c -0.082,0.3437 -0.297,1.2656 -0.668,2.7968 -0.402,-1.5312 -0.644,-2.4531 -0.734,-2.7968 l -2.07,-6.8516 z m -6.371,13.0195 h 7.07 l 7.153,-20.7265 h -5.625 l -1.035,3.7265 h -8.016 l -1.094,-3.7265 h -5.609 l 7.156,20.7265" /><path
         id="path172"
         style="fill:#df9824;fill-opacity:1;fill-rule:nonzero;stroke:none"
         d="m 166.773,98.7109 c 1.372,-1.6367 2.309,-9.3086 -4.347,-9.8554 -11.453,-0.8946 -16.961,0.2461 -16.961,0.2461 0,0 15.359,1.8047 21.308,9.6093" /><path
         id="path174"
         style="fill:#df9824;fill-opacity:1;fill-rule:nonzero;stroke:none"
         d="m 218.418,333.941 c 0.699,9.395 5.137,11.586 11.227,11.45 3.418,-0.082 8.582,-0.129 21.097,-0.032 -7.047,-0.625 -15.836,-4.328 -16.976,-13.496 -1.071,-8.515 -1.137,-38.011 -1.348,-50.586 -6.184,-0.23 -14.453,-0.011 -16.281,-0.48 0.902,13.055 1.593,43.75 2.281,53.144" /><path
         id="path176"
         style="fill:#df9824;fill-opacity:1;fill-rule:nonzero;stroke:none"
         d="m 155.641,370.395 h 3.06641 v 11.7383 H 155.641 Z" /><path
         id="path178"
         style="fill:#df9824;fill-opacity:1;fill-rule:nonzero;stroke:none"
         d="m 158.707,384.555 -3.109,8.828 v -8.778 l 3.109,-0.05" /><path
         id="path180"
         style="fill:none;stroke:#0d3258;stroke-width:5;stroke-linecap:butt;stroke-linejoin:miter;stroke-miterlimit:4;stroke-dasharray:none;stroke-opacity:1"
         d="M 1623.74,410.414 V 68.8242" /><path
         id="path182"
         style="fill:#0d3258;fill-opacity:1;fill-rule:nonzero;stroke:none"
         d="m 1724.19,313.402 c 0,-22.5 14.54,-35.644 40.02,-35.644 22.7,0 35.65,10.953 35.65,28.277 0,18.52 -9.96,24.297 -33.25,30.27 l -13.54,3.383 c -26.29,6.773 -39.04,15.531 -39.04,38.832 0,22.699 17.93,38.433 47,38.433 30.07,0 47.79,-16.133 48.19,-43.613 h -13.54 c -0.2,20.512 -12.95,31.859 -35.25,31.859 -21.1,0 -32.85,-9.957 -32.85,-27.078 0,-13.543 7.36,-20.308 24.09,-24.492 l 16.73,-4.18 c 31.06,-7.769 45,-18.32 45,-42.019 0,-25.489 -18.72,-41.418 -49.38,-41.418 -34.25,0 -53.37,16.726 -53.37,46.394 v 0.996 h 13.54" /><path
         id="path184"
         style="fill:#0d3258;fill-opacity:1;fill-rule:nonzero;stroke:none"
         d="m 1918.72,305.641 c -2.19,-23.7 -18.52,-38.235 -43.01,-38.235 -27.48,0 -45.2,19.914 -45.2,53.567 0,34.648 17.92,54.961 46,54.961 23.29,0 39.62,-14.34 40.82,-35.446 h -11.55 c -1.99,15.133 -13.74,24.887 -29.27,24.887 -19.92,0 -33.66,-15.73 -33.66,-43.406 0,-28.078 13.74,-44.008 33.85,-44.008 15.94,0 27.48,10.152 30.07,27.68 h 11.95" /><path
         id="path186"
         style="fill:#0d3258;fill-opacity:1;fill-rule:nonzero;stroke:none"
         d="m 1938.42,413.168 h 11.95 v -55.957 c 7.76,12.348 19.31,18.723 34.25,18.723 13.93,0 25.29,-5.579 30.86,-14.539 4.18,-6.77 4.18,-15.93 4.18,-28.473 v -62.926 h -11.95 v 62.723 c 0,22.105 -3.78,32.656 -25.48,32.656 -18.92,0 -31.86,-13.141 -31.86,-34.449 v -60.93 h -11.95 v 143.172" /><path
         id="path188"
         style="fill:#0d3258;fill-opacity:1;fill-rule:nonzero;stroke:none"
         d="m 2088.34,277.961 c 22.11,0 35.25,15.328 35.25,43.605 0,28.278 -13.14,43.809 -35.25,43.809 -21.9,0 -35.04,-15.531 -35.04,-43.809 0,-28.277 13.14,-43.605 35.04,-43.605 z m 0,97.973 c 30.07,0 47.6,-19.719 47.6,-54.368 0,-34.648 -17.53,-54.16 -47.6,-54.16 -30.06,0 -47.39,19.512 -47.39,54.16 0,34.649 17.33,54.368 47.39,54.368" /><path
         id="path190"
         style="fill:#0d3258;fill-opacity:1;fill-rule:nonzero;stroke:none"
         d="m 2199.44,277.961 c 22.11,0 35.25,15.328 35.25,43.605 0,28.278 -13.14,43.809 -35.25,43.809 -21.9,0 -35.05,-15.531 -35.05,-43.809 0,-28.277 13.15,-43.605 35.05,-43.605 z m 0,97.973 c 30.07,0 47.6,-19.719 47.6,-54.368 0,-34.648 -17.53,-54.16 -47.6,-54.16 -30.06,0 -47.39,19.512 -47.39,54.16 0,34.649 17.33,54.368 47.39,54.368" /><path
         id="path192"
         style="fill:#0d3258;fill-opacity:1;fill-rule:nonzero;stroke:none"
         d="m 2269.52,269.996 h 11.9492 V 413.168 H 2269.52 Z" /><path
         id="path194"
         style="fill:#0d3258;fill-opacity:1;fill-rule:nonzero;stroke:none"
         d="m 2404.52,277.961 c 22.1,0 35.24,15.328 35.24,43.605 0,28.278 -13.14,43.809 -35.24,43.809 -21.91,0 -35.05,-15.531 -35.05,-43.809 0,-28.277 13.14,-43.605 35.05,-43.605 z m 0,97.973 c 30.06,0 47.59,-19.719 47.59,-54.368 0,-34.648 -17.53,-54.16 -47.59,-54.16 -30.07,0 -47.4,19.512 -47.4,54.16 0,34.649 17.33,54.368 47.4,54.368" /><path
         id="path196"
         style="fill:#0d3258;fill-opacity:1;fill-rule:nonzero;stroke:none"
         d="m 2479.17,363.586 h -15.13 v 9.754 h 15.13 v 18.922 c 0,15.726 7.77,22.297 24.5,22.297 1.99,0 3.98,-0.2 6.17,-0.594 v -10.754 c -2.59,0.195 -4.78,0.797 -6.57,0.797 -9.16,0 -12.15,-3.785 -12.15,-12.945 V 373.34 h 18.72 v -9.754 h -18.72 v -93.59 h -11.95 v 93.59" /><path
         id="path198"
         style="fill:#0d3258;fill-opacity:1;fill-rule:nonzero;stroke:none"
         d="m 1830.92,117.691 c -2.19,-31.6676 -23.29,-50.7808 -57.15,-50.7808 -38.03,0 -62.32,28.0781 -62.32,75.8668 0,47.395 24.69,75.075 62.72,75.075 32.66,0 53.96,-18.125 55.36,-45.602 h -12.94 c -2.2,20.91 -18.32,33.848 -42.42,33.848 -30.46,0 -49.18,-22.297 -49.18,-63.121 0,-41.219 19.31,-64.3207 49.58,-64.3207 25.49,0 41.62,14.5429 43.41,39.0347 h 12.94" /><path
         id="path200"
         style="fill:#0d3258;fill-opacity:1;fill-rule:nonzero;stroke:none"
         d="m 1895.82,78.8555 c 22.1,0 35.24,15.332 35.24,43.6095 0,28.277 -13.14,43.808 -35.24,43.808 -21.9,0 -35.05,-15.531 -35.05,-43.808 0,-28.2775 13.15,-43.6095 35.05,-43.6095 z m 0,97.9765 c 30.07,0 47.59,-19.719 47.59,-54.367 0,-34.6486 -17.52,-54.1603 -47.59,-54.1603 -30.07,0 -47.39,19.5117 -47.39,54.1603 0,34.648 17.32,54.367 47.39,54.367" /><path
         id="path202"
         style="fill:#0d3258;fill-opacity:1;fill-rule:nonzero;stroke:none"
         d="m 1964.7,174.238 h 11.15 v -17.125 c 6.97,12.746 18.53,19.719 32.86,19.719 15.53,0 26.08,-7.367 29.47,-20.312 6.97,13.339 18.52,20.312 33.26,20.312 22.5,0 33.45,-11.152 33.45,-33.855 V 70.8945 h -11.95 V 141.98 c 0,16.731 -5.97,24.293 -21.9,24.293 -18.52,0 -30.27,-12.543 -30.27,-30.664 V 70.8945 h -11.95 v 69.8905 c 0,17.125 -6.96,25.488 -21.7,25.488 -18.12,0 -30.47,-12.742 -30.47,-31.46 V 70.8945 H 1964.7 V 174.238" /><path
         id="path204"
         style="fill:#0d3258;fill-opacity:1;fill-rule:nonzero;stroke:none"
         d="m 2177.55,78.6563 c 22.1,0 35.24,15.3359 35.24,43.8087 0,28.277 -13.14,43.808 -35.24,43.808 -22.11,0 -34.85,-15.332 -34.85,-43.808 0,-27.6759 13.14,-43.8087 34.85,-43.8087 z m -46.4,95.5817 h 11.95 v -18.515 c 7.96,14.336 19.51,21.109 36.24,21.109 28.08,0 45.8,-20.113 45.8,-54.367 0,-34.4494 -18.12,-54.3595 -46.39,-54.3595 -15.94,0 -27.49,6.7734 -35.65,20.707 V 29.2773 h -11.95 V 174.238" /><path
         id="path206"
         style="fill:#0d3258;fill-opacity:1;fill-rule:nonzero;stroke:none"
         d="m 2327.08,70.8945 h -11.56 v 16.5274 c -7.96,-13.1446 -19.11,-19.3164 -34.65,-19.3164 -23.49,0 -35.04,12.3476 -35.04,36.6405 v 69.492 h 11.95 v -66.703 c 0,-19.7186 6.37,-28.8787 25.29,-28.8787 19.71,0 32.06,13.1445 32.06,34.4527 v 61.129 h 11.95 V 70.8945" /><path
         id="path208"
         style="fill:#0d3258;fill-opacity:1;fill-rule:nonzero;stroke:none"
         d="m 2369.67,174.238 h 19.11 v -9.758 h -19.11 V 89.2148 c 0,-7.5703 0.99,-11.1523 7.57,-11.1523 3.18,0 6.96,0.9961 11.54,1.9922 v -9.5625 c -5.37,-1.3906 -10.15,-2.1875 -14.73,-2.1875 -13.34,0 -16.33,6.7695 -16.33,20.9101 V 164.48 h -14.14 v 9.758 h 14.14 v 29.672 h 11.95 v -29.672" /><path
         id="path210"
         style="fill:#0d3258;fill-opacity:1;fill-rule:nonzero;stroke:none"
         d="m 2409.09,174.238 h 11.95 V 70.8945 h -11.95 z m 0,39.828 h 11.95 v -17.925 h -11.95 v 17.925" /><path
         id="path212"
         style="fill:#0d3258;fill-opacity:1;fill-rule:nonzero;stroke:none"
         d="m 2448.91,174.238 h 11.55 v -16.523 c 7.76,12.746 19.12,19.117 34.25,19.117 14.33,0 25.49,-5.379 31.06,-14.535 3.99,-6.375 4.18,-14.539 4.18,-25.492 V 70.8945 H 2518 V 135.41 c 0,20.906 -4.58,30.863 -25.68,30.863 -18.92,0 -31.47,-12.945 -31.47,-34.449 V 70.8945 h -11.94 V 174.238" /><path
         id="path214"
         style="fill:#0d3258;fill-opacity:1;fill-rule:nonzero;stroke:none"
         d="m 2598.84,78.6563 c 21.7,0 35.04,15.5312 35.04,43.8087 0,28.277 -13.14,43.808 -35.04,43.808 -22.11,0 -35.25,-15.332 -35.25,-43.808 0,-27.8752 13.94,-43.8087 35.25,-43.8087 z m 45.99,-2.3868 c 0,-31.6601 -16.72,-47.789 -48.98,-47.789 -24.49,0 -40.02,11.9453 -41.42,30.2656 h 12.35 c 1.19,-12.3438 11.35,-19.7148 28.87,-19.7148 24.89,0 37.24,12.5468 37.24,36.8437 v 12.7422 c -8.17,-13.7383 -20.12,-20.5117 -35.84,-20.5117 -27.88,0 -45.8,20.1133 -45.8,54.3595 0,34.055 18.32,54.367 45.8,54.367 15.92,0 27.87,-6.773 35.84,-20.516 v 17.922 h 11.94 V 76.2695" /><path
         id="path216"
         style="fill:#0d3258;fill-opacity:1;fill-rule:nonzero;stroke:none"
         d="m 2733.62,114.301 c 0,-22.5002 14.53,-35.6447 40.02,-35.6447 22.7,0 35.65,10.9531 35.65,28.2777 0,18.519 -9.96,24.296 -33.26,30.269 l -13.54,3.383 c -26.29,6.773 -39.03,15.531 -39.03,38.832 0,22.699 17.93,38.434 47,38.434 30.06,0 47.79,-16.133 48.18,-43.614 h -13.53 c -0.2,20.512 -12.95,31.86 -35.26,31.86 -21.09,0 -32.85,-9.957 -32.85,-27.078 0,-13.543 7.37,-20.309 24.1,-24.493 l 16.72,-4.179 c 31.08,-7.77 45,-18.321 45,-42.02 0,-25.4842 -18.71,-41.4178 -49.37,-41.4178 -34.26,0 -53.37,16.7265 -53.37,46.3948 v 0.996 h 13.54" /><path
         id="path218"
         style="fill:#0d3258;fill-opacity:1;fill-rule:nonzero;stroke:none"
         d="m 2928.15,106.539 c -2.18,-23.6952 -18.51,-38.2343 -43,-38.2343 -27.48,0 -45.22,19.9141 -45.22,53.5663 0,34.649 17.93,54.961 46,54.961 23.3,0 39.63,-14.344 40.82,-35.445 h -11.54 c -2,15.133 -13.74,24.886 -29.28,24.886 -19.9,0 -33.65,-15.73 -33.65,-43.406 0,-28.0779 13.75,-44.0115 33.86,-44.0115 15.92,0 27.48,10.1562 30.06,27.6835 h 11.95" /><path
         id="path220"
         style="fill:#0d3258;fill-opacity:1;fill-rule:nonzero;stroke:none"
         d="m 2949.05,174.238 h 11.94 V 70.8945 h -11.94 z m 0,39.828 h 11.94 v -17.925 h -11.94 v 17.925" /><path
         id="path222"
         style="fill:#0d3258;fill-opacity:1;fill-rule:nonzero;stroke:none"
         d="m 3060.75,130.035 c -0.99,22.899 -13.34,36.238 -31.85,36.238 -18.54,0 -31.66,-13.539 -32.87,-36.238 z m -64.72,-10.359 c 0,-25.883 13.55,-41.0197 33.45,-41.0197 16.14,0 27.89,8.9648 30.28,24.0977 h 11.95 c -2.6,-20.9102 -19.32,-34.6485 -43.03,-34.6485 -27.87,0 -45,19.7109 -45,53.9645 0,34.848 17.33,54.762 45.41,54.762 27.48,0 44.01,-18.922 44.01,-52.574 v -3.981 h -77.07 v -0.601" /><path
         id="path224"
         style="fill:#0d3258;fill-opacity:1;fill-rule:nonzero;stroke:none"
         d="m 3094.38,174.238 h 11.57 v -16.523 c 7.75,12.746 19.1,19.117 34.24,19.117 14.33,0 25.48,-5.379 31.07,-14.535 3.98,-6.375 4.18,-14.539 4.18,-25.492 V 70.8945 h -11.95 V 135.41 c 0,20.906 -4.57,30.863 -25.69,30.863 -18.92,0 -31.46,-12.945 -31.46,-34.449 V 70.8945 h -11.96 V 174.238" /><path
         id="path226"
         style="fill:#0d3258;fill-opacity:1;fill-rule:nonzero;stroke:none"
         d="m 3284.74,106.539 c -2.19,-23.6952 -18.52,-38.2343 -43.01,-38.2343 -27.48,0 -45.2,19.9141 -45.2,53.5663 0,34.649 17.91,54.961 46,54.961 23.3,0 39.63,-14.344 40.82,-35.445 h -11.54 c -2,15.133 -13.75,24.886 -29.28,24.886 -19.92,0 -33.65,-15.73 -33.65,-43.406 0,-28.0779 13.73,-44.0115 33.84,-44.0115 15.94,0 27.49,10.1562 30.08,27.6835 h 11.94" /><path
         id="path228"
         style="fill:#0d3258;fill-opacity:1;fill-rule:nonzero;stroke:none"
         d="m 3376.32,130.035 c -1,22.899 -13.34,36.238 -31.86,36.238 -18.51,0 -31.66,-13.539 -32.85,-36.238 z m -64.71,-10.359 c 0,-25.883 13.54,-41.0197 33.46,-41.0197 16.13,0 27.87,8.9648 30.25,24.0977 h 11.96 c -2.58,-20.9102 -19.32,-34.6485 -43.01,-34.6485 -27.87,0 -45,19.7109 -45,53.9645 0,34.848 17.32,54.762 45.39,54.762 27.48,0 44,-18.922 44,-52.574 v -3.981 h -77.05 v -0.601" /></g></g></svg>